<svg xmlns="http://www.w3.org/2000/svg" width="22.757" height="22.757" viewBox="0 0 22.757 22.757">
  <defs>
    <style>
      .cls-1 {
        fill: #06f;
      }

      .cls-2 {
        fill: #e6e6e6;
      }
    </style>
  </defs>
  <g id="Group_133" data-name="Group 133" transform="translate(-2360 -4026.122)">
    <path id="Subtraction_18" data-name="Subtraction 18" class="cls-1" d="M10.364,10.364H0V0A10.421,10.421,0,0,1,4.012.847a10.46,10.46,0,0,1,3.28,2.225,10.46,10.46,0,0,1,2.225,3.28,10.421,10.421,0,0,1,.847,4.012Z" transform="translate(2360 4036.486) rotate(-90)"/>
    <path id="Subtraction_20" data-name="Subtraction 20" class="cls-2" d="M10.364,10.364H0V0A10.421,10.421,0,0,1,4.012.847a10.46,10.46,0,0,1,3.28,2.225,10.46,10.46,0,0,1,2.225,3.28,10.421,10.421,0,0,1,.847,4.012Z" transform="translate(2370.365 4048.878) rotate(180)"/>
    <path id="Subtraction_21" data-name="Subtraction 21" class="cls-1" d="M10.364,10.364H0V0A10.421,10.421,0,0,1,4.012.847a10.46,10.46,0,0,1,3.28,2.225,10.46,10.46,0,0,1,2.225,3.28,10.421,10.421,0,0,1,.847,4.012Z" transform="translate(2382.757 4038.514) rotate(90)"/>
    <path id="Subtraction_19" data-name="Subtraction 19" class="cls-1" d="M10.364,10.364H0V0A10.421,10.421,0,0,1,4.012.847a10.46,10.46,0,0,1,3.28,2.225,10.46,10.46,0,0,1,2.225,3.28,10.421,10.421,0,0,1,.847,4.012Z" transform="translate(2372.392 4026.122)"/>
  </g>
</svg>
