<svg xmlns="http://www.w3.org/2000/svg" width="22.757" height="22.757" viewBox="0 0 22.757 22.757">
  <defs>
    <style>
      .cls-1 {
        fill: #06f;
      }

      .cls-2 {
        fill: #e6e6e6;
      }
    </style>
  </defs>
  <g id="Group_135" data-name="Group 135" transform="translate(-2202 -4026.122)">
    <path id="Subtraction_8" data-name="Subtraction 8" class="cls-1" d="M10.364,10.364H0V0A10.421,10.421,0,0,1,4.012.847a10.46,10.46,0,0,1,3.28,2.225,10.46,10.46,0,0,1,2.225,3.28,10.421,10.421,0,0,1,.847,4.012Z" transform="translate(2202 4036.486) rotate(-90)"/>
    <path id="Subtraction_10" data-name="Subtraction 10" class="cls-2" d="M10.364,10.364H0V0A10.421,10.421,0,0,1,4.012.847a10.46,10.46,0,0,1,3.28,2.225,10.46,10.46,0,0,1,2.225,3.28,10.421,10.421,0,0,1,.847,4.012Z" transform="translate(2212.365 4048.878) rotate(180)"/>
    <path id="Subtraction_12" data-name="Subtraction 12" class="cls-2" d="M10.364,10.364H0V0A10.421,10.421,0,0,1,4.012.847a10.46,10.46,0,0,1,3.28,2.225,10.46,10.46,0,0,1,2.225,3.28,10.421,10.421,0,0,1,.847,4.012Z" transform="translate(2224.757 4038.514) rotate(90)"/>
    <path id="Subtraction_13" data-name="Subtraction 13" class="cls-2" d="M10.364,10.364H0V0A10.421,10.421,0,0,1,4.012.847a10.46,10.46,0,0,1,3.28,2.225,10.46,10.46,0,0,1,2.225,3.28,10.421,10.421,0,0,1,.847,4.012Z" transform="translate(2214.392 4026.122)"/>
  </g>
</svg>
