<svg xmlns="http://www.w3.org/2000/svg" width="22.757" height="22.757" viewBox="0 0 22.757 22.757">
  <defs>
    <style>
      .cls-1 {
        fill: #06f;
      }
    </style>
  </defs>
  <g id="Group_132" data-name="Group 132" transform="translate(-2439 -4026.122)">
    <path id="Subtraction_22" data-name="Subtraction 22" class="cls-1" d="M10.364,10.364H0V0A10.421,10.421,0,0,1,4.012.847a10.46,10.46,0,0,1,3.28,2.225,10.46,10.46,0,0,1,2.225,3.28,10.421,10.421,0,0,1,.847,4.012Z" transform="translate(2439 4036.486) rotate(-90)"/>
    <path id="Subtraction_24" data-name="Subtraction 24" class="cls-1" d="M10.364,10.364H0V0A10.421,10.421,0,0,1,4.012.847a10.46,10.46,0,0,1,3.28,2.225,10.46,10.46,0,0,1,2.225,3.28,10.421,10.421,0,0,1,.847,4.012Z" transform="translate(2449.365 4048.878) rotate(180)"/>
    <path id="Subtraction_25" data-name="Subtraction 25" class="cls-1" d="M10.364,10.364H0V0A10.421,10.421,0,0,1,4.012.847a10.46,10.46,0,0,1,3.28,2.225,10.46,10.46,0,0,1,2.225,3.28,10.421,10.421,0,0,1,.847,4.012Z" transform="translate(2461.757 4038.514) rotate(90)"/>
    <path id="Subtraction_23" data-name="Subtraction 23" class="cls-1" d="M10.364,10.364H0V0A10.421,10.421,0,0,1,4.012.847a10.46,10.46,0,0,1,3.28,2.225,10.46,10.46,0,0,1,2.225,3.28,10.421,10.421,0,0,1,.847,4.012Z" transform="translate(2451.392 4026.122)"/>
  </g>
</svg>
